<svg xmlns="http://www.w3.org/2000/svg" viewBox="0 0 400 300"><circle cx="250" cy="110" r="120" fill="#FFF1E8"/><circle cx="90" cy="70" r="40" fill="#FFE3D3"/><path d="M120 300 L230 150 L262 150 L372 300Z" fill="#E7E5E4"/><path d="M246 156 L246 300" stroke="#fff" stroke-width="5" stroke-dasharray="18 14"/><circle cx="126.0" cy="292.0" r="3" fill="#FB5B21"/><circle cx="366.0" cy="292.0" r="3" fill="#FB5B21"/><circle cx="135.8" cy="279.1" r="3" fill="#FB5B21"/><circle cx="356.2" cy="279.1" r="3" fill="#FB5B21"/><circle cx="145.6" cy="266.2" r="3" fill="#FB5B21"/><circle cx="346.4" cy="266.2" r="3" fill="#FB5B21"/><circle cx="155.4" cy="253.3" r="3" fill="#FB5B21"/><circle cx="336.6" cy="253.3" r="3" fill="#FB5B21"/><circle cx="165.2" cy="240.4" r="3" fill="#FB5B21"/><circle cx="326.8" cy="240.4" r="3" fill="#FB5B21"/><circle cx="175.0" cy="227.5" r="3" fill="#FB5B21"/><circle cx="317.0" cy="227.5" r="3" fill="#FB5B21"/><circle cx="184.8" cy="214.6" r="3" fill="#FB5B21"/><circle cx="307.2" cy="214.6" r="3" fill="#FB5B21"/><circle cx="194.60000000000002" cy="201.7" r="3" fill="#FB5B21"/><circle cx="297.4" cy="201.7" r="3" fill="#FB5B21"/><circle cx="204.4" cy="188.8" r="3" fill="#FB5B21"/><circle cx="287.6" cy="188.8" r="3" fill="#FB5B21"/><circle cx="214.2" cy="175.89999999999998" r="3" fill="#FB5B21"/><circle cx="277.8" cy="175.89999999999998" r="3" fill="#FB5B21"/><circle cx="224.0" cy="163.0" r="3" fill="#FB5B21"/><circle cx="268.0" cy="163.0" r="3" fill="#FB5B21"/><g transform="translate(212 108) rotate(-18)" fill="#1C1917"><path d="M-96 0 C-96 -9 -86 -13 -70 -13 L60 -13 C82 -13 96 -6 100 0 C96 6 82 13 60 13 L-70 13 C-86 13 -96 9 -96 0Z"/><path d="M-10 -8 L-44 -70 L-24 -70 L30 -8Z"/><path d="M-10 8 L-44 70 L-24 70 L30 8Z"/><path d="M-80 -8 L-96 -40 L-84 -40 L-60 -8Z"/><rect x="-40" y="-4" width="80" height="4" rx="2" fill="#fff" opacity=".6"/></g><g fill="#1C1917"><rect x="40" y="160" width="16" height="110"/><path d="M28 140 h40 l-6 22 h-28Z"/><rect x="30" y="130" width="36" height="10" rx="3"/></g><rect x="36" y="146" width="24" height="8" rx="2" fill="#FDB59B"/></svg>