<svg xmlns="http://www.w3.org/2000/svg" viewBox="0 0 480 320" preserveAspectRatio="xMidYMid slice"><defs><linearGradient id="s" x1="0" y1="0" x2="0" y2="1"><stop offset="0" stop-color="#0C0A09"/><stop offset=".55" stop-color="#241611"/><stop offset=".9" stop-color="#5E2713"/></linearGradient><linearGradient id="w" x1="0" y1="0" x2="0" y2="1"><stop offset="0" stop-color="#3A1A12"/><stop offset="1" stop-color="#0C0807"/></linearGradient><radialGradient id="g" cx=".5" cy=".5" r=".5"><stop offset="0" stop-color="#FFE9D2" stop-opacity=".55"/><stop offset="1" stop-color="#FFE9D2" stop-opacity="0"/></radialGradient></defs><rect width="480" height="320" fill="url(#s)"/><circle cx="165" cy="38" r="0.8" fill="#fff" opacity="0.8"/><circle cx="24" cy="18" r="1.1" fill="#fff" opacity="0.35"/><circle cx="187" cy="149" r="0.6" fill="#fff" opacity="0.8"/><circle cx="109" cy="9" r="0.6" fill="#fff" opacity="0.55"/><circle cx="214" cy="17" r="0.6" fill="#fff" opacity="0.35"/><circle cx="282" cy="108" r="0.6" fill="#fff" opacity="0.8"/><circle cx="63" cy="57" r="1.1" fill="#fff" opacity="0.8"/><circle cx="298" cy="15" r="1.1" fill="#fff" opacity="0.8"/><circle cx="203" cy="12" r="0.6" fill="#fff" opacity="0.35"/><circle cx="285" cy="34" r="0.8" fill="#fff" opacity="0.55"/><circle cx="73" cy="138" r="0.6" fill="#fff" opacity="0.8"/><circle cx="157" cy="143" r="1.1" fill="#fff" opacity="0.35"/><circle cx="52" cy="148" r="1.1" fill="#fff" opacity="0.8"/><circle cx="96" cy="95" r="0.6" fill="#fff" opacity="0.8"/><circle cx="364" cy="16" r="1.1" fill="#fff" opacity="0.35"/><circle cx="316" cy="52" r="0.8" fill="#fff" opacity="0.8"/><circle cx="272" cy="109" r="0.8" fill="#fff" opacity="0.55"/><circle cx="299" cy="116" r="0.8" fill="#fff" opacity="0.55"/><circle cx="127" cy="46" r="1.1" fill="#fff" opacity="0.35"/><circle cx="41" cy="147" r="0.8" fill="#fff" opacity="0.8"/><circle cx="253" cy="87" r="1.1" fill="#fff" opacity="0.55"/><circle cx="147" cy="18" r="0.6" fill="#fff" opacity="0.8"/><circle cx="214" cy="42" r="0.8" fill="#fff" opacity="0.35"/><circle cx="477" cy="125" r="0.8" fill="#fff" opacity="0.35"/><circle cx="342" cy="19" r="1.1" fill="#fff" opacity="0.8"/><circle cx="404" cy="80" r="0.8" fill="#fff" opacity="0.8"/><circle cx="179" cy="127" r="1.1" fill="#fff" opacity="0.55"/><circle cx="35" cy="23" r="0.8" fill="#fff" opacity="0.55"/><circle cx="356" cy="16" r="0.6" fill="#fff" opacity="0.8"/><circle cx="359" cy="79" r="1.1" fill="#fff" opacity="0.8"/><circle cx="348" cy="114" r="0.8" fill="#fff" opacity="0.8"/><circle cx="197" cy="88" r="0.6" fill="#fff" opacity="0.55"/><circle cx="181" cy="43" r="1.1" fill="#fff" opacity="0.35"/><circle cx="252" cy="15" r="0.6" fill="#fff" opacity="0.55"/><circle cx="66" cy="63" r="0.8" fill="#fff" opacity="0.55"/><circle cx="469" cy="127" r="0.6" fill="#fff" opacity="0.35"/><circle cx="229" cy="102" r="1.1" fill="#fff" opacity="0.55"/><circle cx="452" cy="35" r="0.8" fill="#fff" opacity="0.8"/><circle cx="250" cy="190" r="54" fill="url(#g)"/><circle cx="250" cy="190" r="18" fill="#FFE9D2" opacity=".92"/><rect y="200" width="480" height="120" fill="url(#w)"/><rect x="185.0" y="208.0" width="110" height="2.2" rx="1.1" fill="#FFE9D2" opacity="0.75"/><rect x="202.0" y="218.6" width="102" height="2.2" rx="1.1" fill="#FFE9D2" opacity="0.69"/><rect x="199.0" y="230.4" width="94" height="2.2" rx="1.1" fill="#FFE9D2" opacity="0.63"/><rect x="216.0" y="243.4" width="86" height="2.2" rx="1.1" fill="#FFE9D2" opacity="0.57"/><rect x="213.0" y="257.6" width="78" height="2.2" rx="1.1" fill="#FFE9D2" opacity="0.51"/><rect x="210.0" y="273.0" width="70" height="2.2" rx="1.1" fill="#FFE9D2" opacity="0.45"/><rect x="227.0" y="289.6" width="62" height="2.2" rx="1.1" fill="#FFE9D2" opacity="0.39"/><rect x="224.0" y="307.4" width="54" height="2.2" rx="1.1" fill="#FFE9D2" opacity="0.33"/><rect x="221.0" y="326.4" width="46" height="2.2" rx="1.1" fill="#FFE9D2" opacity="0.27"/><rect x="238.0" y="346.6" width="38" height="2.2" rx="1.1" fill="#FFE9D2" opacity="0.21"/><path d="M340 214 C380 196 430 192 480 200 L480 320 L360 320 C380 270 360 240 340 214Z" fill="#110B09"/><g fill="#110B09"><path d="M400 200 L405 128 L419 128 L424 200Z"/><rect x="398" y="118" width="28" height="12" rx="2"/><path d="M403 118 L412 102 L421 118Z"/></g><circle cx="412" cy="124" r="4" fill="#FB5B21"/><path d="M412 124 L300 96 L300 142Z" fill="#FB5B21" opacity=".16"/><path d="M0 250 q8 -5 16 0 t16 0" fill="none" stroke="#fff" stroke-opacity=".25" stroke-width="1.4"/><path d="M30 250 q8 -5 16 0 t16 0" fill="none" stroke="#fff" stroke-opacity=".25" stroke-width="1.4"/><path d="M60 250 q8 -5 16 0 t16 0" fill="none" stroke="#fff" stroke-opacity=".25" stroke-width="1.4"/><path d="M90 250 q8 -5 16 0 t16 0" fill="none" stroke="#fff" stroke-opacity=".25" stroke-width="1.4"/><path d="M120 250 q8 -5 16 0 t16 0" fill="none" stroke="#fff" stroke-opacity=".25" stroke-width="1.4"/><path d="M150 250 q8 -5 16 0 t16 0" fill="none" stroke="#fff" stroke-opacity=".25" stroke-width="1.4"/><path d="M180 250 q8 -5 16 0 t16 0" fill="none" stroke="#fff" stroke-opacity=".25" stroke-width="1.4"/><path d="M210 250 q8 -5 16 0 t16 0" fill="none" stroke="#fff" stroke-opacity=".25" stroke-width="1.4"/><path d="M240 250 q8 -5 16 0 t16 0" fill="none" stroke="#fff" stroke-opacity=".25" stroke-width="1.4"/><path d="M270 250 q8 -5 16 0 t16 0" fill="none" stroke="#fff" stroke-opacity=".25" stroke-width="1.4"/><path d="M300 250 q8 -5 16 0 t16 0" fill="none" stroke="#fff" stroke-opacity=".25" stroke-width="1.4"/><path d="M-10 320 L-10 262 C60 250 140 262 220 290 C250 300 260 310 270 320Z" fill="#0A0707"/><g transform="translate(40 272) scale(1.0)" fill="#110B09"><path d="M-3 0 C0 -40 6 -70 16 -98 L21 -96 C12 -68 7 -40 5 0Z"/><path d="M18 -98 C-6 -112 -36 -104 -58 -82 C-32 -95 -8 -97 16 -92Z"/><path d="M18 -98 C40 -118 70 -114 92 -90 C66 -104 42 -103 20 -92Z"/><path d="M18 -98 C8 -126 -14 -140 -38 -144 C-16 -128 0 -114 15 -95Z"/><path d="M18 -98 C32 -130 56 -142 80 -142 C58 -128 38 -114 21 -94Z"/><path d="M18 -98 C2 -96 -20 -74 -28 -48 C-12 -72 4 -86 18 -92Z"/></g><g transform="translate(110 282) scale(0.78)" fill="#110B09"><path d="M-3 0 C0 -40 6 -70 16 -98 L21 -96 C12 -68 7 -40 5 0Z"/><path d="M18 -98 C-6 -112 -36 -104 -58 -82 C-32 -95 -8 -97 16 -92Z"/><path d="M18 -98 C40 -118 70 -114 92 -90 C66 -104 42 -103 20 -92Z"/><path d="M18 -98 C8 -126 -14 -140 -38 -144 C-16 -128 0 -114 15 -95Z"/><path d="M18 -98 C32 -130 56 -142 80 -142 C58 -128 38 -114 21 -94Z"/><path d="M18 -98 C2 -96 -20 -74 -28 -48 C-12 -72 4 -86 18 -92Z"/></g></svg>