<svg xmlns="http://www.w3.org/2000/svg" viewBox="0 0 480 320" preserveAspectRatio="xMidYMid slice"><defs><linearGradient id="s" x1="0" y1="0" x2="0" y2="1"><stop offset="0" stop-color="#0C0A09"/><stop offset=".55" stop-color="#241611"/><stop offset=".9" stop-color="#5E2713"/></linearGradient><linearGradient id="m" x1="0" y1="0" x2="0" y2="1"><stop offset="0" stop-color="#fff" stop-opacity="0"/><stop offset=".5" stop-color="#fff" stop-opacity=".16"/><stop offset="1" stop-color="#fff" stop-opacity="0"/></linearGradient><radialGradient id="g" cx=".5" cy=".5" r=".5"><stop offset="0" stop-color="#FFE9D2" stop-opacity=".55"/><stop offset="1" stop-color="#FFE9D2" stop-opacity="0"/></radialGradient></defs><rect width="480" height="320" fill="url(#s)"/><circle cx="165" cy="38" r="0.8" fill="#fff" opacity="0.8"/><circle cx="24" cy="18" r="1.1" fill="#fff" opacity="0.35"/><circle cx="187" cy="149" r="0.6" fill="#fff" opacity="0.8"/><circle cx="109" cy="9" r="0.6" fill="#fff" opacity="0.55"/><circle cx="214" cy="17" r="0.6" fill="#fff" opacity="0.35"/><circle cx="282" cy="108" r="0.6" fill="#fff" opacity="0.8"/><circle cx="63" cy="57" r="1.1" fill="#fff" opacity="0.8"/><circle cx="298" cy="15" r="1.1" fill="#fff" opacity="0.8"/><circle cx="203" cy="12" r="0.6" fill="#fff" opacity="0.35"/><circle cx="285" cy="34" r="0.8" fill="#fff" opacity="0.55"/><circle cx="73" cy="138" r="0.6" fill="#fff" opacity="0.8"/><circle cx="157" cy="143" r="1.1" fill="#fff" opacity="0.35"/><circle cx="52" cy="148" r="1.1" fill="#fff" opacity="0.8"/><circle cx="96" cy="95" r="0.6" fill="#fff" opacity="0.8"/><circle cx="364" cy="16" r="1.1" fill="#fff" opacity="0.35"/><circle cx="316" cy="52" r="0.8" fill="#fff" opacity="0.8"/><circle cx="272" cy="109" r="0.8" fill="#fff" opacity="0.55"/><circle cx="299" cy="116" r="0.8" fill="#fff" opacity="0.55"/><circle cx="127" cy="46" r="1.1" fill="#fff" opacity="0.35"/><circle cx="41" cy="147" r="0.8" fill="#fff" opacity="0.8"/><circle cx="253" cy="87" r="1.1" fill="#fff" opacity="0.55"/><circle cx="147" cy="18" r="0.6" fill="#fff" opacity="0.8"/><circle cx="214" cy="42" r="0.8" fill="#fff" opacity="0.35"/><circle cx="477" cy="125" r="0.8" fill="#fff" opacity="0.35"/><circle cx="342" cy="19" r="1.1" fill="#fff" opacity="0.8"/><circle cx="404" cy="80" r="0.8" fill="#fff" opacity="0.8"/><circle cx="179" cy="127" r="1.1" fill="#fff" opacity="0.55"/><circle cx="35" cy="23" r="0.8" fill="#fff" opacity="0.55"/><circle cx="356" cy="16" r="0.6" fill="#fff" opacity="0.8"/><circle cx="359" cy="79" r="1.1" fill="#fff" opacity="0.8"/><circle cx="348" cy="114" r="0.8" fill="#fff" opacity="0.8"/><circle cx="197" cy="88" r="0.6" fill="#fff" opacity="0.55"/><circle cx="181" cy="43" r="1.1" fill="#fff" opacity="0.35"/><circle cx="252" cy="15" r="0.6" fill="#fff" opacity="0.55"/><circle cx="66" cy="63" r="0.8" fill="#fff" opacity="0.55"/><circle cx="469" cy="127" r="0.6" fill="#fff" opacity="0.35"/><circle cx="229" cy="102" r="1.1" fill="#fff" opacity="0.55"/><circle cx="452" cy="35" r="0.8" fill="#fff" opacity="0.8"/><circle cx="330" cy="120" r="54" fill="url(#g)"/><circle cx="330" cy="120" r="18" fill="#FFE9D2" opacity=".92"/><path d="M0 320 L0 160.0 C40.0 160.0 40.0 120.0 80.0 120.0 C120.0 120.0 120.0 140.0 160.0 140.0 C200.0 140.0 200.0 100.0 240.0 100.0 C280.0 100.0 280.0 130.0 320.0 130.0 C360.0 130.0 360.0 110.0 400.0 110.0 C440.0 110.0 440.0 150.0 480.0 150.0 L480 320 Z" fill="#2D1D17" opacity="0.75"/><rect y="150" width="480" height="46" fill="url(#m)"/><path d="M0 320 L0 210.0 C34.285714285714285 210.0 34.285714285714285 175.0 68.57142857142857 175.0 C102.85714285714286 175.0 102.85714285714286 200.0 137.14285714285714 200.0 C171.42857142857144 200.0 171.42857142857144 160.0 205.71428571428572 160.0 C240.0 160.0 240.0 190.0 274.2857142857143 190.0 C308.57142857142856 190.0 308.57142857142856 170.0 342.85714285714283 170.0 C377.1428571428571 170.0 377.1428571428571 210.0 411.42857142857144 210.0 C445.7142857142857 210.0 445.7142857142857 185.0 480.0 185.0 L480 320 Z" fill="#1F1411" opacity="0.95"/><rect y="196" width="480" height="40" fill="url(#m)"/><path d="M0 320 L0 260.0 C40.0 260.0 40.0 240.0 80.0 240.0 C120.0 240.0 120.0 255.0 160.0 255.0 C200.0 255.0 200.0 220.0 240.0 220.0 C280.0 220.0 280.0 250.0 320.0 250.0 C360.0 250.0 360.0 230.0 400.0 230.0 C440.0 230.0 440.0 265.0 480.0 265.0 L480 320 Z" fill="#110B09" opacity="1"/><path d="M500 250 C380 262 330 240 360 228 C390 216 300 206 250 214 C200 222 150 250 60 262 C10 268 -10 300 -20 330" fill="none" stroke="#0A0707" stroke-width="10" stroke-linecap="round"/><path d="M500 250 C380 262 330 240 360 228 C390 216 300 206 250 214 C200 222 150 250 60 262 C10 268 -10 300 -20 330" fill="none" stroke="#FB5B21" stroke-width="1.6" stroke-dasharray="8 8" opacity=".85"/><path d="M318 261.0084117417584 L325.31550535489504 284 L310.68449464510496 284Z" fill="#110B09"/><path d="M407 286.3596562541429 L415.1582911918636 312 L398.8417088081364 312Z" fill="#110B09"/><path d="M378 283.6253100440165 L386.0737649859947 309 L369.9262350140053 309Z" fill="#110B09"/><path d="M14 273.55734690984855 L21.45902598323001 297 L6.54097401676999 297Z" fill="#110B09"/><path d="M127 295.1155370511719 L131.4177836655362 309 L122.5822163344638 309Z" fill="#110B09"/><path d="M80 256.89232770657753 L85.7615320933617 275 L74.2384679066383 275Z" fill="#110B09"/><path d="M444 264.7739954950091 L449.79918325158803 283 L438.20081674841197 283Z" fill="#110B09"/><path d="M52 287.5088345693565 L57.24718900065928 304 L46.75281099934072 304Z" fill="#110B09"/><path d="M374 262.41240607433645 L379.914234430893 281 L368.085765569107 281Z" fill="#110B09"/><path d="M93 276.6932243968739 L97.87033769190376 292 L88.12966230809624 292Z" fill="#110B09"/><path d="M408 256.9682700771345 L412.7828231572754 272 L403.2171768427246 272Z" fill="#110B09"/><path d="M316 281.12757013033644 L320.7321367767111 296 L311.2678632232889 296Z" fill="#110B09"/><path d="M0 252.03517575106446 L5.079716806479495 268 L-5.079716806479495 268Z" fill="#110B09"/><path d="M110 253.28421749623422 L117.86411261483457 278 L102.13588738516543 278Z" fill="#110B09"/><path d="M148 262.1084905458589 L156.23820755359034 288 L139.76179244640966 288Z" fill="#110B09"/><path d="M276 289.5403614170619 L282.82806682184395 311 L269.17193317815605 311Z" fill="#110B09"/><path d="M93 296.20119662017635 L98.02689198448934 312 L87.97310801551066 312Z" fill="#110B09"/><path d="M457 274.85598654832893 L462.4549133709862 292 L451.5450866290138 292Z" fill="#110B09"/><path d="M184 278.60938004588735 L188.89701543994494 294 L179.10298456005506 294Z" fill="#110B09"/><path d="M74 269.94015578344107 L78.47358679617784 284 L69.52641320382216 284Z" fill="#110B09"/><path d="M154 285.0629353877555 L160.66179328571417 306 L147.33820671428583 306Z" fill="#110B09"/><path d="M305 288.4586747880262 L312.17223984017346 311 L297.82776015982654 311Z" fill="#110B09"/><path d="M33 269.1093620836404 L38.69247570065987 287 L27.30752429934013 287Z" fill="#110B09"/><path d="M156 275.60725853913675 L163.12496319209285 298 L148.87503680790715 298Z" fill="#110B09"/><path d="M94 278.5624937824783 L100.18466106921144 298 L87.81533893078856 298Z" fill="#110B09"/><path d="M90 254.41839976555622 L95.27596371095939 271 L84.72403628904061 271Z" fill="#110B09"/></svg>