<svg xmlns="http://www.w3.org/2000/svg" viewBox="0 0 480 320" preserveAspectRatio="xMidYMid slice"><defs><linearGradient id="s" x1="0" y1="0" x2="0" y2="1"><stop offset="0" stop-color="#FFEADB"/><stop offset=".55" stop-color="#FFCBAE"/><stop offset=".9" stop-color="#FF9F70"/></linearGradient><radialGradient id="g" cx=".5" cy=".5" r=".5"><stop offset="0" stop-color="#FB5B21" stop-opacity=".55"/><stop offset="1" stop-color="#FB5B21" stop-opacity="0"/></radialGradient></defs><rect width="480" height="320" fill="url(#s)"/><circle cx="120" cy="130" r="102" fill="url(#g)"/><circle cx="120" cy="130" r="34" fill="#FB5B21" opacity=".92"/><path d="M0 320 L0 220.0 C34.285714285714285 220.0 34.285714285714285 195.0 68.57142857142857 195.0 C102.85714285714286 195.0 102.85714285714286 210.0 137.14285714285714 210.0 C171.42857142857144 210.0 171.42857142857144 180.0 205.71428571428572 180.0 C240.0 180.0 240.0 200.0 274.2857142857143 200.0 C308.57142857142856 200.0 308.57142857142856 188.0 342.85714285714283 188.0 C377.1428571428571 188.0 377.1428571428571 215.0 411.42857142857144 215.0 C445.7142857142857 215.0 445.7142857142857 202.0 480.0 202.0 L480 320 Z" fill="#EBA88A" opacity="0.7"/><g fill="#B96A4C"><path d="M252.0 262 L258.0 241 L378.0 241 L384.0 262Z"/><rect x="261.0" y="239.8" width="114" height="2.4" fill="#FFD9BD" opacity=".55"/><rect x="276.4" y="246" width="3.2" height="12" fill="#FFD9BD" opacity=".35"/><rect x="296.4" y="246" width="3.2" height="12" fill="#FFD9BD" opacity=".35"/><rect x="316.4" y="246" width="3.2" height="12" fill="#FFD9BD" opacity=".35"/><rect x="336.4" y="246" width="3.2" height="12" fill="#FFD9BD" opacity=".35"/><rect x="356.4" y="246" width="3.2" height="12" fill="#FFD9BD" opacity=".35"/><path d="M258.0 241 L264.0 220 L372.0 220 L378.0 241Z"/><rect x="267.0" y="218.8" width="102" height="2.4" fill="#FFD9BD" opacity=".55"/><rect x="280.4" y="225" width="3.2" height="12" fill="#FFD9BD" opacity=".35"/><rect x="298.4" y="225" width="3.2" height="12" fill="#FFD9BD" opacity=".35"/><rect x="316.4" y="225" width="3.2" height="12" fill="#FFD9BD" opacity=".35"/><rect x="334.4" y="225" width="3.2" height="12" fill="#FFD9BD" opacity=".35"/><rect x="352.4" y="225" width="3.2" height="12" fill="#FFD9BD" opacity=".35"/><path d="M264.0 220 L270.0 199 L366.0 199 L372.0 220Z"/><rect x="273.0" y="197.8" width="90" height="2.4" fill="#FFD9BD" opacity=".55"/><rect x="284.4" y="204" width="3.2" height="12" fill="#FFD9BD" opacity=".35"/><rect x="300.4" y="204" width="3.2" height="12" fill="#FFD9BD" opacity=".35"/><rect x="316.4" y="204" width="3.2" height="12" fill="#FFD9BD" opacity=".35"/><rect x="332.4" y="204" width="3.2" height="12" fill="#FFD9BD" opacity=".35"/><rect x="348.4" y="204" width="3.2" height="12" fill="#FFD9BD" opacity=".35"/><path d="M270.0 199 L276.0 178 L360.0 178 L366.0 199Z"/><rect x="279.0" y="176.8" width="78" height="2.4" fill="#FFD9BD" opacity=".55"/><rect x="288.4" y="183" width="3.2" height="12" fill="#FFD9BD" opacity=".35"/><rect x="302.4" y="183" width="3.2" height="12" fill="#FFD9BD" opacity=".35"/><rect x="316.4" y="183" width="3.2" height="12" fill="#FFD9BD" opacity=".35"/><rect x="330.4" y="183" width="3.2" height="12" fill="#FFD9BD" opacity=".35"/><rect x="344.4" y="183" width="3.2" height="12" fill="#FFD9BD" opacity=".35"/><path d="M276.0 178 L282.0 157 L354.0 157 L360.0 178Z"/><rect x="285.0" y="155.8" width="66" height="2.4" fill="#FFD9BD" opacity=".55"/><rect x="292.4" y="162" width="3.2" height="12" fill="#FFD9BD" opacity=".35"/><rect x="304.4" y="162" width="3.2" height="12" fill="#FFD9BD" opacity=".35"/><rect x="316.4" y="162" width="3.2" height="12" fill="#FFD9BD" opacity=".35"/><rect x="328.4" y="162" width="3.2" height="12" fill="#FFD9BD" opacity=".35"/><rect x="340.4" y="162" width="3.2" height="12" fill="#FFD9BD" opacity=".35"/><path d="M282.0 157 L288.0 136 L348.0 136 L354.0 157Z"/><rect x="291.0" y="134.8" width="54" height="2.4" fill="#FFD9BD" opacity=".55"/><rect x="296.4" y="141" width="3.2" height="12" fill="#FFD9BD" opacity=".35"/><rect x="306.4" y="141" width="3.2" height="12" fill="#FFD9BD" opacity=".35"/><rect x="316.4" y="141" width="3.2" height="12" fill="#FFD9BD" opacity=".35"/><rect x="326.4" y="141" width="3.2" height="12" fill="#FFD9BD" opacity=".35"/><rect x="336.4" y="141" width="3.2" height="12" fill="#FFD9BD" opacity=".35"/><path d="M288.0 136 L294.0 115 L342.0 115 L348.0 136Z"/><rect x="297.0" y="113.8" width="42" height="2.4" fill="#FFD9BD" opacity=".55"/><rect x="300.4" y="120" width="3.2" height="12" fill="#FFD9BD" opacity=".35"/><rect x="308.4" y="120" width="3.2" height="12" fill="#FFD9BD" opacity=".35"/><rect x="316.4" y="120" width="3.2" height="12" fill="#FFD9BD" opacity=".35"/><rect x="324.4" y="120" width="3.2" height="12" fill="#FFD9BD" opacity=".35"/><rect x="332.4" y="120" width="3.2" height="12" fill="#FFD9BD" opacity=".35"/><rect x="290.0" y="103" width="56" height="12" rx="6"/><path d="M293.8 103 L296.0 94 L298.2 103Z"/><path d="M304.8 103 L307.0 94 L309.2 103Z"/><path d="M315.8 103 L318.0 94 L320.2 103Z"/><path d="M326.8 103 L329.0 94 L331.2 103Z"/><path d="M337.8 103 L340.0 94 L342.2 103Z"/></g><g fill="#B96A4C"><path d="M108.0 262 L114.0 245 L186.0 245 L192.0 262Z"/><rect x="117.0" y="243.8" width="66" height="2.4" fill="#FFD9BD" opacity=".55"/><rect x="124.4" y="250" width="3.2" height="8" fill="#FFD9BD" opacity=".35"/><rect x="136.4" y="250" width="3.2" height="8" fill="#FFD9BD" opacity=".35"/><rect x="148.4" y="250" width="3.2" height="8" fill="#FFD9BD" opacity=".35"/><rect x="160.4" y="250" width="3.2" height="8" fill="#FFD9BD" opacity=".35"/><rect x="172.4" y="250" width="3.2" height="8" fill="#FFD9BD" opacity=".35"/><path d="M114.0 245 L120.0 228 L180.0 228 L186.0 245Z"/><rect x="123.0" y="226.8" width="54" height="2.4" fill="#FFD9BD" opacity=".55"/><rect x="128.4" y="233" width="3.2" height="8" fill="#FFD9BD" opacity=".35"/><rect x="138.4" y="233" width="3.2" height="8" fill="#FFD9BD" opacity=".35"/><rect x="148.4" y="233" width="3.2" height="8" fill="#FFD9BD" opacity=".35"/><rect x="158.4" y="233" width="3.2" height="8" fill="#FFD9BD" opacity=".35"/><rect x="168.4" y="233" width="3.2" height="8" fill="#FFD9BD" opacity=".35"/><path d="M120.0 228 L126.0 211 L174.0 211 L180.0 228Z"/><rect x="129.0" y="209.8" width="42" height="2.4" fill="#FFD9BD" opacity=".55"/><rect x="132.4" y="216" width="3.2" height="8" fill="#FFD9BD" opacity=".35"/><rect x="140.4" y="216" width="3.2" height="8" fill="#FFD9BD" opacity=".35"/><rect x="148.4" y="216" width="3.2" height="8" fill="#FFD9BD" opacity=".35"/><rect x="156.4" y="216" width="3.2" height="8" fill="#FFD9BD" opacity=".35"/><rect x="164.4" y="216" width="3.2" height="8" fill="#FFD9BD" opacity=".35"/><path d="M126.0 211 L132.0 194 L168.0 194 L174.0 211Z"/><rect x="135.0" y="192.8" width="30" height="2.4" fill="#FFD9BD" opacity=".55"/><rect x="136.4" y="199" width="3.2" height="8" fill="#FFD9BD" opacity=".35"/><rect x="142.4" y="199" width="3.2" height="8" fill="#FFD9BD" opacity=".35"/><rect x="148.4" y="199" width="3.2" height="8" fill="#FFD9BD" opacity=".35"/><rect x="154.4" y="199" width="3.2" height="8" fill="#FFD9BD" opacity=".35"/><rect x="160.4" y="199" width="3.2" height="8" fill="#FFD9BD" opacity=".35"/><path d="M132.0 194 L138.0 177 L162.0 177 L168.0 194Z"/><rect x="141.0" y="175.8" width="18" height="2.4" fill="#FFD9BD" opacity=".55"/><rect x="140.4" y="182" width="3.2" height="8" fill="#FFD9BD" opacity=".35"/><rect x="144.4" y="182" width="3.2" height="8" fill="#FFD9BD" opacity=".35"/><rect x="148.4" y="182" width="3.2" height="8" fill="#FFD9BD" opacity=".35"/><rect x="152.4" y="182" width="3.2" height="8" fill="#FFD9BD" opacity=".35"/><rect x="156.4" y="182" width="3.2" height="8" fill="#FFD9BD" opacity=".35"/><rect x="134.0" y="165" width="32" height="12" rx="6"/><path d="M137.8 165 L140.0 156 L142.2 165Z"/><path d="M142.8 165 L145.0 156 L147.2 165Z"/><path d="M147.8 165 L150.0 156 L152.2 165Z"/><path d="M152.8 165 L155.0 156 L157.2 165Z"/><path d="M157.8 165 L160.0 156 L162.2 165Z"/></g><rect y="244" width="480" height="20" fill="#3B2420"/><rect x="0" y="238" width="12" height="8" fill="#3B2420"/><rect x="22" y="238" width="12" height="8" fill="#3B2420"/><rect x="44" y="238" width="12" height="8" fill="#3B2420"/><rect x="66" y="238" width="12" height="8" fill="#3B2420"/><rect x="88" y="238" width="12" height="8" fill="#3B2420"/><rect x="110" y="238" width="12" height="8" fill="#3B2420"/><rect x="132" y="238" width="12" height="8" fill="#3B2420"/><rect x="154" y="238" width="12" height="8" fill="#3B2420"/><rect x="176" y="238" width="12" height="8" fill="#3B2420"/><rect x="198" y="238" width="12" height="8" fill="#3B2420"/><rect x="220" y="238" width="12" height="8" fill="#3B2420"/><rect x="242" y="238" width="12" height="8" fill="#3B2420"/><rect x="264" y="238" width="12" height="8" fill="#3B2420"/><rect x="286" y="238" width="12" height="8" fill="#3B2420"/><rect x="308" y="238" width="12" height="8" fill="#3B2420"/><rect x="330" y="238" width="12" height="8" fill="#3B2420"/><rect x="352" y="238" width="12" height="8" fill="#3B2420"/><rect x="374" y="238" width="12" height="8" fill="#3B2420"/><rect x="396" y="238" width="12" height="8" fill="#3B2420"/><rect x="418" y="238" width="12" height="8" fill="#3B2420"/><rect x="440" y="238" width="12" height="8" fill="#3B2420"/><rect x="462" y="238" width="12" height="8" fill="#3B2420"/><g transform="translate(38 262) scale(0.9)" fill="#3B2420"><path d="M-3 0 C0 -40 6 -70 16 -98 L21 -96 C12 -68 7 -40 5 0Z"/><path d="M18 -98 C-6 -112 -36 -104 -58 -82 C-32 -95 -8 -97 16 -92Z"/><path d="M18 -98 C40 -118 70 -114 92 -90 C66 -104 42 -103 20 -92Z"/><path d="M18 -98 C8 -126 -14 -140 -38 -144 C-16 -128 0 -114 15 -95Z"/><path d="M18 -98 C32 -130 56 -142 80 -142 C58 -128 38 -114 21 -94Z"/><path d="M18 -98 C2 -96 -20 -74 -28 -48 C-12 -72 4 -86 18 -92Z"/></g><g transform="translate(440 262) scale(1.05)" fill="#3B2420"><path d="M-3 0 C0 -40 6 -70 16 -98 L21 -96 C12 -68 7 -40 5 0Z"/><path d="M18 -98 C-6 -112 -36 -104 -58 -82 C-32 -95 -8 -97 16 -92Z"/><path d="M18 -98 C40 -118 70 -114 92 -90 C66 -104 42 -103 20 -92Z"/><path d="M18 -98 C8 -126 -14 -140 -38 -144 C-16 -128 0 -114 15 -95Z"/><path d="M18 -98 C32 -130 56 -142 80 -142 C58 -128 38 -114 21 -94Z"/><path d="M18 -98 C2 -96 -20 -74 -28 -48 C-12 -72 4 -86 18 -92Z"/></g><rect y="262" width="480" height="58" fill="#2A1A17"/><rect x="250" y="272" width="140" height="2" rx="1" fill="#FFD9BD" opacity="0.50"/><rect x="244" y="281" width="152" height="2" rx="1" fill="#FFD9BD" opacity="0.43"/><rect x="238" y="290" width="164" height="2" rx="1" fill="#FFD9BD" opacity="0.36"/><rect x="232" y="299" width="176" height="2" rx="1" fill="#FFD9BD" opacity="0.29"/><rect x="226" y="308" width="188" height="2" rx="1" fill="#FFD9BD" opacity="0.22"/><rect x="220" y="317" width="200" height="2" rx="1" fill="#FFD9BD" opacity="0.15"/></svg>